<?xml version="1.0" encoding="utf-8"?>
<!-- Generator: Adobe Illustrator 21.1.0, SVG Export Plug-In . SVG Version: 6.00 Build 0)  -->
<svg version="1.1" id="Layer_1" xmlns="http://www.w3.org/2000/svg" xmlns:xlink="http://www.w3.org/1999/xlink" x="0px" y="0px"
	 viewBox="0 0 126 35" style="enable-background:new 0 0 126 35;" xml:space="preserve">
<style type="text/css">
	.st0{fill:#4C1700;}
	.st1{fill:#996036;}
</style>
<path class="st0" d="M16.2,25.9c-0.5,0-1-0.2-1.4-0.5c-0.5-0.4-0.9-1-1.2-1.6l-3.3-5.4c0.6-0.2,1.2-0.5,1.7-0.9
	c0.6-0.4,1-0.9,1.4-1.5c0.4-0.7,0.6-1.5,0.6-2.3c0-0.7-0.1-1.4-0.4-2c-0.3-0.6-0.7-1.2-1.3-1.6c-1.1-0.8-2.8-1.2-5-1.2H0v1.1h0.5
	c0.5,0,0.9,0.1,1.3,0.3c0.4,0.2,0.6,0.6,0.6,1.4v12.5c0,0.7-0.2,1.2-0.6,1.4c-0.4,0.2-0.9,0.3-1.3,0.3H0v1.1h7.8v-1.1H7.3
	c-0.5,0-0.9-0.1-1.3-0.3c-0.4-0.2-0.6-0.6-0.6-1.4v-5.2h2l3.4,5.7c0.3,0.6,0.7,1,1.1,1.5c0.4,0.3,0.9,0.6,1.4,0.7
	c0.8,0.1,1.7,0.2,2.5,0.2h0.5v-1.1H16.2z M7.1,17.8H5.4v-7.6H7c2.4,0,3.4,1.6,3.6,2.2c0.2,0.5,0.1,1,0.1,1.5c0,1-0.2,2.1-0.8,2.9
	C9.4,17.5,8.5,17.8,7.1,17.8z M20.4,26c1.4,1,3.1,1.4,4.9,1.3c1.7,0.1,3.4-0.4,4.7-1.5c0.5-0.5,1-1.1,1.2-1.8
	c0.3-0.7,0.4-1.4,0.4-2.2v-10c0-0.8,0.2-1.3,0.5-1.5c0.4-0.2,0.9-0.3,1.3-0.3H34V8.9h-6.5v1.1H28c0.5,0,0.9,0.1,1.3,0.3
	c0.4,0.2,0.6,0.6,0.6,1.4v10.1c0.1,1.1-0.3,2.1-1,2.9c-0.4,0.4-0.9,0.6-1.4,0.8c-0.5,0.2-1.1,0.2-1.6,0.2c-1.1,0-2.1-0.3-3-0.9
	c-0.4-0.4-0.7-0.9-0.9-1.4c-0.2-0.5-0.3-1.1-0.2-1.7v-9.9c0-0.8,0.2-1.3,0.5-1.5c0.4-0.2,0.9-0.3,1.3-0.3h0.5V8.9h-7.8v1.1h0.6
	c0.5,0,0.9,0.1,1.3,0.3c0.4,0.2,0.6,0.6,0.6,1.4v9.8C18.7,23.6,19.3,25.1,20.4,26z M36.7,26.3c1.2,0.8,2.6,1.2,4,1
	c1.7,0.1,3.3-0.4,4.7-1.4c1.2-0.9,1.8-2.4,1.8-3.8c0-1.2-0.4-2.3-1.2-3.1c-1-0.9-2.2-1.7-3.6-2.2c-1.3-0.5-2.9-1.2-3.6-2.4
	c-0.2-0.5-0.4-1.1-0.4-1.6c0-0.7,0.3-1.5,0.8-2c0.6-0.5,1.4-0.8,2.1-0.7c0.6,0,1.2,0.1,1.7,0.5c0.4,0.3,0.7,0.8,0.8,1.3
	c0.2,0.5,0.3,1,0.3,1.5c0.6,0,1.2-0.1,1.7-0.5c0.4-0.3,0.6-0.8,0.6-1.3c0-0.8-0.5-1.6-1.3-2c-1.1-0.6-2.4-0.9-3.7-0.8
	c-2.8-0.1-5.9,1.6-5.8,4.8c-0.1,1.2,0.3,2.4,1.1,3.3c1,1,2.2,1.8,3.6,2.3c0.8,0.3,1.6,0.7,2.4,1.2c0.5,0.3,1,0.7,1.3,1.2
	c0.2,0.5,0.4,1,0.3,1.5c0,0.9-0.3,1.7-0.9,2.3c-0.7,0.6-1.6,0.9-2.5,0.8c-1,0.1-2-0.4-2.5-1.2c-0.6-0.9-0.8-1.9-0.8-3
	c-0.6,0-1.1,0.1-1.5,0.5c-0.4,0.3-0.6,0.9-0.6,1.4C35.4,24.7,35.9,25.7,36.7,26.3z"/>
<path class="st1" d="M57.4,27.3c-1.6,0.1-3.1-0.4-4.4-1.2c-2.7-1.8-3.7-5.1-3.6-8.2c0-3.1,1.1-6.4,3.8-8.1c1.4-0.8,3-1.3,4.6-1.2
	c1.4-0.1,2.8,0.2,4,0.8c0.8,0.4,1.3,1.2,1.3,2c0,0.5-0.3,1.1-0.7,1.4c-0.5,0.4-1.1,0.5-1.8,0.5c0-1.1-0.3-2.2-1.2-2.8
	c-0.5-0.4-1.1-0.5-1.7-0.5c-1.6-0.2-3.2,0.7-4,2.1c-0.8,1.8-1.2,3.8-1.1,5.8c0,2.3,0.4,5.1,2.2,6.7c0.9,0.7,1.9,1,3,1
	c1,0.1,2-0.2,2.9-0.7c0.7-0.4,1.2-0.9,1.7-1.6c0.3,0.2,0.5,0.6,0.5,1C62.8,26.8,59.3,27.4,57.4,27.3z M81.8,12.9
	c-1.3-3-4.5-4.7-7.7-4.6c-3.1-0.1-6.3,1.3-7.7,4.2c-1.4,3-1.5,6.8-0.3,9.9c1.1,3.1,3.9,4.9,7.1,5.1c3.1,0.2,6.2-0.8,8-3.5
	C83.3,20.9,83.3,16.3,81.8,12.9z M78.1,24c-0.8,1.4-2.2,2.2-4.2,2.2h0c-1.7,0.1-3.4-0.7-4.3-2.2c-0.9-1.9-1.4-3.9-1.3-6
	c-0.1-2.1,0.3-4.1,1.3-5.9c0.9-1.5,2.6-2.3,4.3-2.2c1.6,0,3.2,0.5,4.1,1.9c1.1,1.7,1.5,4.1,1.4,6.2C79.5,20,79.1,22.1,78.1,24z
	 M84.9,27.1v-1.1h0.5c0.5,0,0.9-0.1,1.3-0.3c0.4-0.2,0.6-0.7,0.6-1.5V11.8c0-0.8-0.2-1.3-0.6-1.5c-0.4-0.2-0.9-0.3-1.3-0.3h-0.5V8.9
	h7.8v1.1h-0.5c-0.5,0-0.9,0.1-1.3,0.3c-0.4,0.2-0.5,0.7-0.5,1.5v12.3c0,0.8,0.2,1.3,0.5,1.5c0.4,0.2,0.9,0.3,1.3,0.3h0.5v1.1
	L84.9,27.1z M94.5,27.1v-1.1H95c0.5,0,0.9-0.1,1.3-0.3c0.4-0.2,0.6-0.7,0.6-1.5V11.7c0-0.7-0.2-1.2-0.6-1.4
	c-0.4-0.2-0.9-0.3-1.3-0.3h-0.5V8.9h4.9l9.1,13.7V11.7c0-0.7-0.2-1.2-0.6-1.4c-0.4-0.2-0.9-0.3-1.3-0.3h-0.5V8.9h6.5v1.1H112
	c-0.5,0-0.9,0.1-1.3,0.3c-0.4,0.2-0.6,0.7-0.6,1.5v15.3h-1.9l-9.7-14.5v11.6c0,0.8,0.2,1.3,0.5,1.5c0.4,0.2,0.9,0.3,1.3,0.3h0.5v1.1
	L94.5,27.1z M119.6,27.3c-1.4,0.1-2.9-0.3-4-1c-0.8-0.6-1.3-1.6-1.3-2.5c0-0.5,0.2-1.1,0.6-1.4c0.4-0.3,1-0.5,1.5-0.5
	c0,1,0.3,2.1,0.9,3c0.6,0.8,1.6,1.3,2.5,1.2c0.9,0,1.8-0.3,2.5-0.8c0.6-0.6,1-1.4,1-2.2c0-1.2-0.7-2.2-1.7-2.7
	c-0.8-0.5-1.5-0.8-2.4-1.2c-1.3-0.5-2.6-1.2-3.6-2.3c-0.8-0.9-1.2-2.1-1.1-3.3c-0.1-3.1,3-4.8,5.8-4.8c1.3-0.1,2.6,0.2,3.7,0.8
	c1.1,0.6,1.8,2.4,0.7,3.3c-0.5,0.3-1.1,0.5-1.7,0.5c0-0.5-0.1-1-0.3-1.5c-0.2-0.5-0.5-0.9-0.9-1.3c-0.5-0.4-1.1-0.5-1.7-0.5
	c-0.8,0-1.5,0.2-2.1,0.7c-0.5,0.5-0.8,1.3-0.8,2c0,0.6,0.1,1.1,0.4,1.6c0.7,1.3,2.3,1.9,3.6,2.4c1.3,0.5,2.5,1.2,3.6,2.2
	c0.8,0.8,1.3,2,1.2,3.1c0.1,1.5-0.6,2.9-1.8,3.8C122.9,26.9,121.2,27.4,119.6,27.3L119.6,27.3z"/>
</svg>
