<?xml version="1.0" encoding="utf-8"?>
<!-- Generator: Adobe Illustrator 21.1.0, SVG Export Plug-In . SVG Version: 6.00 Build 0)  -->
<svg version="1.1" id="Layer_1" xmlns="http://www.w3.org/2000/svg" xmlns:xlink="http://www.w3.org/1999/xlink" x="0px" y="0px"
	 viewBox="0 0 126 35" style="enable-background:new 0 0 126 35;" xml:space="preserve">
<style type="text/css">
	.st0{fill:#996036;}
</style>
<path class="st0" d="M63.4,8c0.2,0.1,0.3,0.3,0.4,0.4L64,8.5c2.3-2.6,5.6-4.3,9.1-4.5c3.5-0.3,7,0.9,9.7,3.2h1.1
	c-1.4-1.3-3-2.3-4.8-3C75.5,2.7,71.4,2.9,68,4.6C66.2,5.4,64.7,6.5,63.4,8L63.4,8z M60.5,6.7c0.6,0.1,1.1,0.3,1.6,0.5
	c1.5-1.7,3.3-3.1,5.3-4c4.1-1.9,9-1.9,13.1-0.1c2.1,0.9,3.9,2.3,5.4,4h2C86.4,5,84.4,3.2,82,2C74.7-1.7,65.6,0.3,60.5,6.7L60.5,6.7z
	 M74.1,34.9c2.5,0,5-0.5,7.3-1.6c2.3-1,4.3-2.6,5.9-4.5h-2.2c-1.5,1.5-3.3,2.6-5.2,3.4c-2,0.8-4,1.1-6.1,1.1c-2.1,0-4.2-0.5-6.1-1.4
	c-1.9-0.9-3.6-2.1-5.1-3.6c-0.5,0.3-1,0.5-1.5,0.7C64.4,32.7,69.2,34.9,74.1,34.9z M74.1,31.8c3.2,0,6.2-1,8.7-3h-1.3
	c-5.4,3.6-12.8,2.8-17.3-2c-0.2,0.2-0.3,0.4-0.5,0.5c1.3,1.4,2.9,2.5,4.7,3.3C70.3,31.4,72.2,31.8,74.1,31.8z"/>
</svg>
